<svg xmlns="http://www.w3.org/2000/svg" width="220.002" height="30" viewBox="0 0 220.002 30">
  <g id="logo" transform="translate(0 -0.021)">
    <path id="Path_2070" data-name="Path 2070" d="M32.328,12.439a10.475,10.475,0,0,1-6.265,9.728A14.5,14.5,0,0,0,16.5,2.216C25.651.238,32.413,6.092,32.328,12.439Z" transform="translate(-3.631 -1.804)" fill="#479dd2"/>
    <path id="Path_2071" data-name="Path 2071" d="M11.533,3.5a10.475,10.475,0,0,1,9.728,6.265A14.5,14.5,0,0,0,1.31,19.328C-.75,10.178,5.1,3.417,11.533,3.5Z" transform="translate(-0.89 -2.099)" fill="#8bc63f"/>
    <path id="Path_2072" data-name="Path 2072" d="M2.5,23.328A10.475,10.475,0,0,1,8.765,13.6a14.06,14.06,0,0,0-.247,11.377,14.548,14.548,0,0,0,9.728,8.491C9.178,35.53,2.417,29.759,2.5,23.328Z" transform="translate(-1.173 -3.872)" fill="#f57d20"/>
    <path id="Path_2073" data-name="Path 2073" d="M22.328,33.328A10.475,10.475,0,0,1,12.6,27.063,14.5,14.5,0,0,0,32.551,17.5C34.53,26.651,28.759,33.413,22.328,33.328Z" transform="translate(-2.946 -4.557)" fill="#c83986"/>
    <g id="Group_894" data-name="Group 894" transform="translate(38.795 5.853)">
      <path id="Path_2074" data-name="Path 2074" d="M55.153,6.7a12.387,12.387,0,0,1,3.627.577V2H60.1V16.012c0,.989-.412,3.957-5.111,3.957-2.144,0-5.689-.907-5.689-6.76,0-5.357,3.134-6.505,5.854-6.505ZM54.988,18.74c2.885,0,3.792-1.4,3.792-2.72V8.678a10.539,10.539,0,0,0-3.627-.742c-2.8,0-4.534,1.319-4.534,5.276,0,4.946,2.555,5.523,4.37,5.523Z" transform="translate(-49.299 -1.835)" fill="#545453"/>
      <path id="Path_2075" data-name="Path 2075" d="M77.709,14.378v.66h-9.89a2.633,2.633,0,0,0,.247,1.154c.329,2.473,2.144,3.463,4.617,3.463a9.316,9.316,0,0,0,4.2-.907v1.319a10.209,10.209,0,0,1-4.287.825c-2.885,0-6.105-1.237-6.105-6.348,0-2.061.66-6.843,5.689-6.843,5.446,0,5.526,5.853,5.526,6.678Zm-9.892-.494h8.574c0-.66-.165-4.946-4.287-4.946-2.8,0-4.12,1.9-4.286,4.946Z" transform="translate(-52.319 -2.836)" fill="#545453"/>
      <path id="Path_2076" data-name="Path 2076" d="M92.409,8h1.4l-5.2,12.778H87.293Q84.719,14.38,82.1,8h1.4l4.452,11.209Z" transform="translate(-55.058 -2.889)" fill="#545453"/>
      <path id="Path_2077" data-name="Path 2077" d="M110.009,14.378v.66h-9.892a2.633,2.633,0,0,0,.247,1.154c.329,2.473,2.144,3.463,4.617,3.463a9.316,9.316,0,0,0,4.2-.907v1.319a10.209,10.209,0,0,1-4.287.825c-2.885,0-6.105-1.237-6.105-6.348,0-2.061.66-6.843,5.689-6.843C110.009,7.7,110.009,13.553,110.009,14.378Zm-9.892-.494h8.574c0-.66-.165-4.946-4.287-4.946-2.719,0-4.12,1.9-4.286,4.946Z" transform="translate(-57.992 -2.836)" fill="#545453"/>
      <path id="Path_2078" data-name="Path 2078" d="M116.6,19.725V2h1.319V19.725Z" transform="translate(-61.117 -1.835)" fill="#545453"/>
      <path id="Path_2079" data-name="Path 2079" d="M134.436,14.3c0,5.441-3.215,6.6-6.018,6.6-2.72,0-6.018-1.154-6.018-6.6s3.215-6.6,6.018-6.6,6.018,1.154,6.018,6.6Zm-1.237,0c0-4.039-1.9-5.441-4.7-5.441s-4.7,1.4-4.7,5.441,1.9,5.441,4.7,5.441,4.7-1.4,4.7-5.441Z" transform="translate(-62.135 -2.836)" fill="#545453"/>
      <path id="Path_2080" data-name="Path 2080" d="M151.6,14.46c0,5.359-3.133,6.513-5.853,6.513a10.145,10.145,0,0,1-3.627-.66v5.276H140.8V11.657c0-.989.412-3.957,5.111-3.957,2.144,0,5.689.907,5.689,6.76Zm-1.319,0c0-4.864-2.555-5.524-4.37-5.524-2.885,0-3.792,1.4-3.792,2.72v7.337a8.923,8.923,0,0,0,3.627.742c2.8,0,4.535-1.318,4.535-5.275Z" transform="translate(-65.367 -2.836)" fill="#545453"/>
      <path id="Path_2081" data-name="Path 2081" d="M176.649,12.4V20.73H175.33V12.4c0-1.9-.742-3.38-3.545-3.38a9.564,9.564,0,0,0-4.2.989,5.4,5.4,0,0,1,.412,2.391V20.73h-1.319V12.4c0-1.9-.742-3.38-3.545-3.38a8.491,8.491,0,0,0-3.71.825V20.811H158.1V9.019A11.427,11.427,0,0,1,163.293,7.7a4.487,4.487,0,0,1,3.545,1.319A10.919,10.919,0,0,1,171.95,7.7c2.965,0,4.7,1.566,4.7,4.7Z" transform="translate(-68.404 -2.836)" fill="#545453"/>
      <path id="Path_2082" data-name="Path 2082" d="M196.109,14.378v.66h-9.892a2.633,2.633,0,0,0,.247,1.154c.329,2.473,2.144,3.463,4.617,3.463a9.316,9.316,0,0,0,4.2-.907v1.319a10.209,10.209,0,0,1-4.287.825c-2.885,0-6.105-1.237-6.105-6.348,0-2.061.66-6.843,5.689-6.843,5.448,0,5.528,5.853,5.528,6.678Zm-9.892-.494h8.574c0-.66-.165-4.946-4.287-4.946-2.8,0-4.12,1.9-4.286,4.946Z" transform="translate(-73.111 -2.836)" fill="#545453"/>
      <path id="Path_2083" data-name="Path 2083" d="M212.67,12.381v8.33h-1.319v-8.33c0-1.9-.825-3.38-3.792-3.38a11.3,11.3,0,0,0-4.039.825V20.711H202.2V9a12.268,12.268,0,0,1,5.524-1.4C210.856,7.682,212.67,9.248,212.67,12.381Z" transform="translate(-76.149 -2.819)" fill="#545453"/>
      <path id="Path_2084" data-name="Path 2084" d="M224.972,18.687v1.237a5.481,5.481,0,0,1-1.731.247c-.989,0-3.38-.082-3.38-3.3V8.381H217.8V7.227h2.061V3.6h1.319V7.227h3.71V8.381h-3.627v8.491c0,1.731.989,2.144,2.226,2.144a3.937,3.937,0,0,0,1.483-.329Z" transform="translate(-78.888 -2.116)" fill="#545453"/>
      <path id="Path_2085" data-name="Path 2085" d="M190.861,13.768a3.521,3.521,0,0,1,1.648-3.051,7.852,7.852,0,0,1,4.534-1.072,23.292,23.292,0,0,1,2.391.165,3.358,3.358,0,0,0-.907-2.391,3.978,3.978,0,0,0-2.72-.742,12.091,12.091,0,0,0-3.627.66V5.359a10.509,10.509,0,0,1,3.957-.66,6.012,6.012,0,0,1,4.2,1.4,5.291,5.291,0,0,1,1.484,4.039v3.792a2.8,2.8,0,0,1-.082.825,4.569,4.569,0,0,1-.412,1.072,5.852,5.852,0,0,1-.825,1.154,4.359,4.359,0,0,1-1.648.825,7.812,7.812,0,0,1-2.473.329,8.014,8.014,0,0,1-2.555-.329,5.1,5.1,0,0,1-1.648-.825,6.227,6.227,0,0,1-.907-1.154,4.568,4.568,0,0,1-.412-1.072,3.959,3.959,0,0,0,0-.989Zm2.391,0c0,1.484,1.072,2.226,3.133,2.226,1.979,0,2.967-.742,2.967-2.144V11.789a17.561,17.561,0,0,0-2.226-.165,4.7,4.7,0,0,0-1.072.082,6.868,6.868,0,0,0-1.237.329,2.367,2.367,0,0,0-1.072.66,1.329,1.329,0,0,0-.493,1.073ZM204.547,2.885V.412H207.1V2.968h-2.555Zm0,15V4.864h2.391V17.89Zm5.275-6.68a9.581,9.581,0,0,1,.494-3.3A4.317,4.317,0,0,1,211.8,5.851a5.741,5.741,0,0,1,1.9-.907,8.307,8.307,0,0,1,2.061-.247,10.979,10.979,0,0,1,2.8.412V0h2.391V13.933a2.8,2.8,0,0,1-.082.825,4.568,4.568,0,0,1-.412,1.072,5.851,5.851,0,0,1-.825,1.154,4.6,4.6,0,0,1-1.566.825,7.491,7.491,0,0,1-2.473.329,9.083,9.083,0,0,1-1.484-.165,3.7,3.7,0,0,1-1.484-.577,4.777,4.777,0,0,1-1.4-1.154,5.555,5.555,0,0,1-.989-1.979,11.373,11.373,0,0,1-.412-3.053Zm2.391,0a10.408,10.408,0,0,0,.247,2.473,3.189,3.189,0,0,0,.825,1.484,3.775,3.775,0,0,0,1.072.66,2.815,2.815,0,0,0,1.237.165c1.979,0,2.967-.66,2.967-1.9V7.419a8.107,8.107,0,0,0-2.8-.577,5.737,5.737,0,0,0-1.319.165,5,5,0,0,0-1.154.577,2.6,2.6,0,0,0-.825,1.319,9.425,9.425,0,0,0-.248,2.306Z" transform="translate(-39.748)"/>
    </g>
  </g>
</svg>
